<svg width="84" height="84" viewBox="0 0 84 84" fill="none" xmlns="http://www.w3.org/2000/svg">
<path d="M42 28C42 20.268 35.732 14 28 14C20.268 14 14 20.268 14 28C14 35.732 20.268 42 28 42C35.732 42 42 35.732 42 28Z" fill="#FF8980"/>
<path d="M28 42C28 34.268 21.732 28 14 28C6.26801 28 0 34.268 0 42C0 49.732 6.26801 56 14 56C21.732 56 28 49.732 28 42Z" fill="#FF8980"/>
<path d="M42 56C42 48.268 35.732 42 28 42C20.268 42 14 48.268 14 56C14 63.732 20.268 70 28 70C35.732 70 42 63.732 42 56Z" fill="#FF8980"/>
<path d="M56 14C56 6.26801 49.732 0 42 0C34.268 0 28 6.26801 28 14C28 21.732 34.268 28 42 28C49.732 28 56 21.732 56 14Z" fill="#FF8980"/>
<path d="M56 70C56 62.268 49.732 56 42 56C34.268 56 28 62.268 28 70C28 77.732 34.268 84 42 84C49.732 84 56 77.732 56 70Z" fill="#FF8980"/>
<path d="M56 70C56 62.268 49.732 56 42 56C34.268 56 28 62.268 28 70C28 77.732 34.268 84 42 84C49.732 84 56 77.732 56 70Z" fill="#FF8980"/>
<path d="M70 28C70 20.268 63.732 14 56 14C48.268 14 42 20.268 42 28C42 35.732 48.268 42 56 42C63.732 42 70 35.732 70 28Z" fill="#FF8980"/>
<path d="M84 42C84 34.268 77.732 28 70 28C62.268 28 56 34.268 56 42C56 49.732 62.268 56 70 56C77.732 56 84 49.732 84 42Z" fill="#FF8980"/>
<path d="M56 42C56 34.268 49.732 28 42 28C34.268 28 28 34.268 28 42C28 49.732 34.268 56 42 56C49.732 56 56 49.732 56 42Z" fill="#FF8980"/>
<path d="M70 56C70 48.268 63.732 42 56 42C48.268 42 42 48.268 42 56C42 63.732 48.268 70 56 70C63.732 70 70 63.732 70 56Z" fill="#FF8980"/>
<path d="M28 70C28 62.268 21.732 56 14 56C6.26801 56 0 62.268 0 70C0 77.732 6.26801 84 14 84C21.732 84 28 77.732 28 70Z" fill="#FF8980"/>
<path d="M84 14C84 6.26801 77.732 0 70 0C62.268 0 56 6.26801 56 14C56 21.732 62.268 28 70 28C77.732 28 84 21.732 84 14Z" fill="#FF8980"/>
<path d="M28 14C28 6.26801 21.732 0 14 0C6.26801 0 0 6.26801 0 14C0 21.732 6.26801 28 14 28C21.732 28 28 21.732 28 14Z" fill="#FF8980"/>
<path d="M84 70C84 62.268 77.732 56 70 56C62.268 56 56 62.268 56 70C56 77.732 62.268 84 70 84C77.732 84 84 77.732 84 70Z" fill="#FF8980"/>
</svg>
