<svg width="84" height="84" viewBox="0 0 84 84" fill="none" xmlns="http://www.w3.org/2000/svg">
<path d="M70 0C77.732 0 84 6.26801 84 14C84 21.732 77.732 28 70 28C77.732 28 84 34.268 84 42C84 49.732 77.732 56 70 56C77.732 56 84 62.268 84 70C84 77.732 77.732 84 70 84C62.268 84 56 77.732 56 70C56 77.732 49.732 84 42 84C34.268 84 28 77.732 28 70C28 77.732 21.732 84 14 84C6.26801 84 0 77.732 0 70C3.09244e-06 62.268 6.26802 56 14 56C6.26801 56 0 49.732 0 42C2.06162e-06 34.268 6.26801 28 14 28C6.26801 28 0 21.732 0 14C5.15406e-07 6.26801 6.26801 5.1544e-07 14 0C21.732 0 28 6.26801 28 14C28 6.26801 34.268 2.06176e-06 42 0C49.732 0 56 6.26801 56 14C56 6.26802 62.268 3.09264e-06 70 0Z" fill="#FF8980"/>
</svg>
