<svg width="201" height="194" viewBox="0 0 201 194" fill="none" xmlns="http://www.w3.org/2000/svg">
<path d="M38.0449 173.103C38.0928 173.573 38.4671 173.947 38.9375 173.995L39.04 174H161.04C161.592 174 162.04 173.552 162.04 173V70C162.04 69.4477 161.592 69 161.04 69V49C172.638 49 182.04 58.402 182.04 70V173C182.04 184.598 172.638 194 161.04 194H39.04C27.442 194 18.04 184.598 18.04 173V70C18.04 58.402 27.4421 49 39.04 49V69L38.9375 69.0049C38.4334 69.0562 38.04 69.4823 38.04 70V173L38.0449 173.103ZM161.04 49V69H39.04V49H161.04Z" fill="white"/>
<path d="M156.04 174V194H44.04V174H156.04ZM162.04 168V75C162.04 71.6863 159.354 69 156.04 69H44.04C40.7263 69 38.04 71.6863 38.04 75V168C38.04 171.314 40.7263 174 44.04 174V194C29.9049 194 18.4047 182.72 18.0488 168.671L18.04 168V75C18.04 60.8649 29.3198 49.3646 43.3691 49.0088L44.04 49H156.04L156.711 49.0088C170.76 49.3646 182.04 60.8649 182.04 75V168C182.04 182.359 170.399 194 156.04 194V174C159.354 174 162.04 171.314 162.04 168Z" fill="white"/>
<path d="M100.04 26.8906C125.115 26.8906 147.111 40.0756 159.473 59.8906H40.6074C52.9694 40.0756 74.9648 26.8906 100.04 26.8906Z" fill="white"/>
<path d="M63.04 134V110C63.04 104.477 67.5172 100 73.04 100C78.5629 100 83.04 104.477 83.04 110V134C83.04 139.523 78.5629 144 73.04 144C67.5172 144 63.04 139.523 63.04 134Z" fill="white"/>
<path d="M117.04 134V110C117.04 104.477 121.517 100 127.04 100C132.562 100 137.04 104.477 137.04 110V134C137.04 139.523 132.562 144 127.04 144C121.517 144 117.04 139.523 117.04 134Z" fill="white"/>
<path d="M107.54 26V50.3584H92.54V26H107.54Z" fill="#1E1E1E"/>
<path d="M172 113.072L190 113C195.522 112.978 200.017 117.438 200.039 122.96C200.061 128.483 195.602 132.978 190.079 133L172.079 133.072C166.557 133.094 162.062 128.634 162.04 123.112C162.018 117.589 166.477 113.094 172 113.072Z" fill="white"/>
<path d="M10.0002 113.717L28.0001 113.645C33.5229 113.623 38.0178 118.083 38.0398 123.605C38.0618 129.128 33.6025 133.623 28.0797 133.645L10.0799 133.717C4.55706 133.739 0.0621159 129.28 0.040123 123.757C0.01813 118.234 4.47742 113.739 10.0002 113.717Z" fill="white"/>
<path d="M120.407 33.011L120.403 33.0131L120.396 33.0166C120.403 33.013 120.421 33.0026 120.45 32.9862C120.509 32.9531 120.612 32.8949 120.752 32.8129C121.034 32.6483 121.464 32.3905 122 32.0526C123.084 31.3691 124.538 30.3945 126.039 29.2262C129.542 26.4986 129.769 25.6935 131.747 23.0832C137.12 15.9898 133.54 2.24486 140.04 1.8586C147.04 1.44259 153.136 18.1569 149.224 29.7733C146.816 36.9224 142.129 42.0454 138.326 45.0063C136.174 46.6822 134.149 48.0362 132.667 48.9707C131.92 49.4416 131.296 49.8159 130.843 50.0803C130.617 50.2128 130.432 50.318 130.295 50.3952C130.227 50.4337 130.171 50.4655 130.127 50.4898C130.105 50.502 130.086 50.513 130.071 50.5216C130.063 50.5258 130.056 50.5293 130.05 50.5326C130.047 50.5343 130.044 50.536 130.041 50.5375L130.038 50.5396L125.224 41.7746L130.034 50.5416C125.192 53.1981 119.114 51.4265 116.457 46.5849C113.801 41.7451 115.57 35.6695 120.407 33.011Z" fill="white"/>
<path d="M79.7693 33.011L79.7742 33.0131L79.7804 33.0166C79.774 33.013 79.7556 33.0026 79.7265 32.9862C79.6681 32.9531 79.5651 32.8949 79.4248 32.8129C79.1433 32.6483 78.7129 32.3905 78.177 32.0526C77.093 31.3691 75.6384 30.3945 74.138 29.2262C70.6351 26.4986 70.4075 25.6935 68.4301 23.0832C63.0565 15.9898 66.6365 2.24486 60.137 1.8586C53.1368 1.44259 47.0412 18.1569 50.9528 29.7733C53.3603 36.9224 58.0481 42.0454 61.8507 45.0063C64.0029 46.6822 66.0276 48.0362 67.5096 48.9707C68.2566 49.4416 68.8808 49.8159 69.3333 50.0803C69.5599 50.2128 69.745 50.318 69.8816 50.3952C69.9496 50.4337 70.0057 50.4655 70.0494 50.4898C70.0713 50.502 70.0905 50.513 70.106 50.5216C70.1136 50.5258 70.1207 50.5293 70.1267 50.5326C70.1298 50.5343 70.133 50.536 70.1357 50.5375L70.1391 50.5396L74.9529 41.7746L70.1426 50.5416C74.9844 53.1981 81.0631 51.4265 83.7199 46.5849C86.3754 41.7451 84.6065 35.6695 79.7693 33.011Z" fill="white"/>
</svg>
