<svg width="220" height="203" viewBox="0 0 220 203" fill="none" xmlns="http://www.w3.org/2000/svg">
<rect x="30" y="67.5601" width="160" height="125" rx="11" stroke="white" stroke-width="20"/>
<rect x="27" y="67.5601" width="166" height="125" rx="16" stroke="white" stroke-width="20"/>
<path d="M110 26.4507C135.075 26.4507 157.071 39.6357 169.433 59.4507H50.5674C62.9294 39.6357 84.9247 26.4507 110 26.4507Z" fill="white"/>
<path d="M83 118.56V142.56" stroke="white" stroke-width="20" stroke-linecap="round"/>
<path d="M137 118.56V142.56" stroke="white" stroke-width="20" stroke-linecap="round"/>
<path d="M110 18.9185V57.9185" stroke="#1E1E1E" stroke-width="15"/>
<path d="M210 131.56L190 131.632" stroke="white" stroke-width="20" stroke-linecap="round"/>
<path d="M30 132.205L10 132.277" stroke="white" stroke-width="20" stroke-linecap="round"/>
<path d="M129.367 32.5701L129.362 32.5722L129.356 32.5757C129.362 32.5721 129.381 32.5617 129.41 32.5453C129.468 32.5122 129.571 32.454 129.711 32.372C129.993 32.2074 130.423 31.9496 130.959 31.6117C132.043 30.9282 133.498 29.9536 134.998 28.7853C138.501 26.0577 139.387 25.6455 141.627 23.0601C147.473 16.3112 145.5 3.56006 148.999 1.4177C154.103 -1.70716 162.095 17.716 158.183 29.3324C155.776 36.4815 151.088 41.6045 147.285 44.5654C145.133 46.2413 143.109 47.5953 141.626 48.5298C140.88 49.0008 140.255 49.375 139.803 49.6395C139.576 49.7719 139.391 49.8771 139.255 49.9543C139.186 49.9928 139.13 50.0246 139.087 50.0489C139.065 50.0611 139.046 50.0721 139.03 50.0807C139.022 50.0849 139.015 50.0884 139.009 50.0918C139.006 50.0934 139.003 50.0951 139 50.0966L138.997 50.0987L134.183 41.3337L138.993 50.1007C134.152 52.7573 128.073 50.9856 125.416 46.144C122.761 41.3042 124.53 35.2286 129.367 32.5701Z" fill="white"/>
<path d="M89.8954 32.5701L89.9003 32.5722L89.9065 32.5757C89.9001 32.5721 89.8817 32.5617 89.8526 32.5453C89.7942 32.5122 89.6913 32.454 89.5509 32.372C89.2694 32.2074 88.839 31.9496 88.3031 31.6117C87.2191 30.9282 85.7645 29.9536 84.2641 28.7853C80.7612 26.0577 79.8751 25.6455 77.6355 23.0601C71.7895 16.3112 73.7622 3.56006 70.2631 1.4177C65.1592 -1.70716 57.1673 17.716 61.0789 29.3324C63.4864 36.4815 68.1742 41.6045 71.9768 44.5654C74.129 46.2413 76.1537 47.5953 77.6357 48.5298C78.3827 49.0008 79.0069 49.375 79.4594 49.6395C79.686 49.7719 79.8711 49.8771 80.0077 49.9543C80.0757 49.9928 80.1318 50.0246 80.1755 50.0489C80.1974 50.0611 80.2166 50.0721 80.2321 50.0807C80.2398 50.0849 80.2468 50.0884 80.2528 50.0918C80.2559 50.0934 80.2592 50.0951 80.2618 50.0966L80.2653 50.0987L85.079 41.3337L80.2687 50.1007C85.1105 52.7573 91.1893 50.9856 93.846 46.144C96.5015 41.3042 94.7326 35.2286 89.8954 32.5701Z" fill="white"/>
</svg>
