<svg width="220" height="215" viewBox="0 0 220 215" fill="none" xmlns="http://www.w3.org/2000/svg">
<rect x="30" y="79.0977" width="160" height="125" rx="11" stroke="white" stroke-width="20"/>
<rect x="27" y="79.0977" width="166" height="125" rx="16" stroke="white" stroke-width="20"/>
<path d="M117.514 33.2021C143.969 33.2023 166.995 47.8788 178.897 69.5332H42C53.9027 47.8788 76.9286 33.2022 103.384 33.2021H117.514Z" fill="white"/>
<path d="M83 130.098V154.098" stroke="white" stroke-width="20" stroke-linecap="round"/>
<path d="M137 130.098V154.098" stroke="white" stroke-width="20" stroke-linecap="round"/>
<path d="M210 143.098L190 143.169" stroke="white" stroke-width="20" stroke-linecap="round"/>
<path d="M30 143.743L10 143.814" stroke="white" stroke-width="20" stroke-linecap="round"/>
<path d="M133.418 38.2002L133.412 38.2026L133.405 38.2067C133.412 38.2025 133.434 38.1903 133.468 38.171C133.536 38.1323 133.657 38.064 133.822 37.9678C134.152 37.7748 134.657 37.4724 135.285 37.0761C136.557 36.2744 138.263 35.1313 140.022 33.7611C144.131 30.562 145.17 30.0786 147.797 27.0463C154.653 19.1308 152.34 4.17545 156.444 1.66276C162.43 -2.00226 171.803 20.7783 167.215 34.4028C164.392 42.7877 158.894 48.7962 154.434 52.269C151.909 54.2345 149.535 55.8226 147.797 56.9186C146.92 57.471 146.188 57.9099 145.658 58.2201C145.392 58.3754 145.175 58.4988 145.015 58.5894C144.935 58.6345 144.869 58.6718 144.818 58.7004C144.792 58.7147 144.77 58.7276 144.751 58.7376C144.742 58.7426 144.734 58.7467 144.727 58.7506C144.723 58.7526 144.72 58.7545 144.717 58.7562L144.712 58.7587L139.067 48.4786L144.708 58.7611C139.03 61.8768 131.9 59.7989 128.784 54.1204C125.67 48.444 127.744 41.3182 133.418 38.2002Z" fill="white"/>
<path d="M87.1371 38.2002L87.1427 38.2026L87.15 38.2067C87.1425 38.2025 87.1209 38.1903 87.0869 38.171C87.0183 38.1323 86.8976 38.064 86.7329 37.9678C86.4028 37.7748 85.898 37.4724 85.2694 37.0761C83.9981 36.2744 82.292 35.1313 80.5323 33.7611C76.4239 30.562 75.3846 30.0786 72.7579 27.0463C65.9013 19.1308 68.215 4.17545 64.111 1.66276C58.1249 -2.00226 48.7515 20.7783 53.3393 34.4028C56.163 42.7877 61.6612 48.7962 66.121 52.269C68.6452 54.2345 71.0199 55.8226 72.7581 56.9186C73.6342 57.471 74.3663 57.9099 74.8971 58.2201C75.1628 58.3754 75.3799 58.4988 75.5401 58.5894C75.6199 58.6345 75.6857 58.6718 75.7369 58.7004C75.7626 58.7147 75.7852 58.7276 75.8033 58.7376C75.8123 58.7426 75.8205 58.7467 75.8276 58.7506C75.8312 58.7526 75.8351 58.7545 75.8382 58.7562L75.8422 58.7587L81.488 48.4786L75.8463 58.7611C81.525 61.8768 88.6545 59.7989 91.7705 54.1204C94.885 48.444 92.8103 41.3182 87.1371 38.2002Z" fill="white"/>
</svg>
