<svg width="55" height="51" viewBox="0 0 55 51" fill="none" xmlns="http://www.w3.org/2000/svg">
<path d="M10.0012 45.9558C10.0132 46.0693 10.1068 46.1597 10.2244 46.1712L10.25 46.1724H44.75L44.7756 46.1712C44.9017 46.1588 45 46.056 45 45.931V21.069C45 20.9357 44.8881 20.8276 44.75 20.8276V16C47.6495 16 50 18.2695 50 21.069V45.931C50 48.7305 47.6495 51 44.75 51H10.25C7.35049 51 5 48.7305 5 45.931V21.069C5 18.2695 7.35051 16 10.25 16V20.8276C10.1119 20.8276 10 20.9357 10 21.069V45.931L10.0012 45.9558ZM44.75 16V20.8276H10.25V16H44.75Z" fill="white"/>
<path d="M43.7097 46.1724V51H11.2903V46.1724H43.7097ZM45.1613 44.7241V22.2759C45.1613 21.476 44.5114 20.8276 43.7097 20.8276H11.2903C10.4886 20.8276 9.83871 21.476 9.83871 22.2759V44.7241C9.83871 45.524 10.4886 46.1724 11.2903 46.1724V51L11.128 50.9979C7.78291 50.9133 5.08685 48.2235 5.00213 44.8861L5 44.7241V22.2759C5 18.8098 7.81627 16 11.2903 16H43.7097C47.1837 16 50 18.8098 50 22.2759V44.7241C50 48.1361 47.271 50.912 43.872 50.9979L43.7097 51V46.1724C44.5114 46.1724 45.1613 45.524 45.1613 44.7241Z" fill="white"/>
<path d="M18.998 36.2727V29.7273C18.998 28.221 20.1173 27 21.498 27C22.8788 27 23.998 28.221 23.998 29.7273V36.2727C23.998 37.779 22.8788 39 21.498 39C20.1173 39 18.998 37.779 18.998 36.2727Z" fill="white"/>
<path d="M30.998 36.2727V29.7273C30.998 28.221 32.1173 27 33.498 27C34.8788 27 35.998 28.221 35.998 29.7273V36.2727C35.998 37.779 34.8788 39 33.498 39C32.1173 39 30.998 37.779 30.998 36.2727Z" fill="white"/>
<path d="M2.40853 32.0262L7.22472 32.0087C8.55467 32.0039 9.63758 33.0897 9.64347 34.434C9.64935 35.7782 8.57598 36.8718 7.24603 36.8767L2.42984 36.8941C1.09989 36.8989 0.0169756 35.8131 0.011091 34.4689C0.00520644 33.1246 1.07858 32.031 2.40853 32.0262Z" fill="white"/>
<path d="M47.4066 32.0262L52.2228 32.0087C53.5527 32.0039 54.6356 33.0897 54.6415 34.434C54.6474 35.7782 53.574 36.8718 52.2441 36.8767L47.4279 36.8941C46.0979 36.8989 45.015 35.8131 45.0091 34.4689C45.0033 33.1246 46.0766 32.031 47.4066 32.0262Z" fill="white"/>
<path d="M25.998 7V14H9.99902C13.4655 9.76276 19.1476 7.00009 25.5693 7H25.998ZM29.4287 7C35.8505 7.0001 41.5326 9.76276 44.999 14H27.998V7H29.4287Z" fill="white"/>
<path d="M32.2868 7.4793L32.2853 7.47953L32.2833 7.48003C32.2853 7.47951 32.2911 7.47797 32.3003 7.47553C33.6717 7.1089 35.1511 6.55005 36.3276 5.73792C38.4157 4.29642 38.8058 0.634647 39.9175 0.2955C41.5389 -0.199184 42.3065 5.73801 40.392 8.66247C38.8483 11.0205 36.3503 12.2873 33.7206 12.9903C32.2119 13.3937 30.5996 12.5007 30.2191 10.9412C29.8465 9.41397 30.7721 7.86447 32.2868 7.4793Z" fill="white"/>
<path d="M22.2728 7.4793L22.2743 7.47953L22.2762 7.48003C22.2742 7.47951 22.2684 7.47797 22.2593 7.47553C20.8879 7.1089 19.4084 6.55005 18.232 5.73792C16.1439 4.29642 15.7537 0.634647 14.6421 0.2955C13.0207 -0.199184 12.2531 5.73801 14.1675 8.66247C15.7112 11.0205 18.2092 12.2873 20.839 12.9903C22.3476 13.3937 23.9599 12.5007 24.3405 10.9412C24.7131 9.41397 23.7874 7.86447 22.2728 7.4793Z" fill="white"/>
</svg>
