<svg width="302" height="263" viewBox="0 0 302 263" fill="none" xmlns="http://www.w3.org/2000/svg">
<path d="M234 52C262.719 52 286 75.2812 286 104V167C286 195.719 262.719 219 234 219H108.232L63.0615 261.714C61.1488 263.523 58 262.167 58 259.534V218.223C33.5708 213.96 15 192.649 15 167V104C15 75.2812 38.2812 52 67 52H234ZM125.284 150.5C122.496 150.5 119.725 151.733 117.909 154.086C116.054 156.491 115.477 159.756 116.642 162.797L116.76 163.091L117.04 163.726C118.537 166.966 121.46 171.148 126.977 174.536C132.805 178.116 141.02 180.5 152.5 180.5C163.98 180.5 172.195 178.116 178.023 174.536C183.907 170.922 186.84 166.405 188.24 163.091C189.559 159.968 189.007 156.568 187.092 154.086C185.276 151.733 182.504 150.5 179.716 150.5H125.284ZM98 87C92.4772 87 88 91.4772 88 97V122C88 127.523 92.4772 132 98 132C103.523 132 108 127.523 108 122V97C108 91.4772 103.523 87 98 87ZM207 87C201.477 87 197 91.4772 197 97V122C197 127.523 201.477 132 207 132C212.523 132 217 127.523 217 122V97C217 91.4772 212.523 87 207 87Z" fill="white"/>
<rect x="271" y="109" width="31" height="51" rx="10" fill="white"/>
<rect y="109" width="31" height="51" rx="10" fill="white"/>
<rect x="187" y="36" width="31" height="75" rx="10" transform="rotate(90 187 36)" fill="white"/>
<rect x="162" width="24" height="24" rx="5" transform="rotate(90 162 0)" fill="white"/>
<rect x="145" y="17" width="10" height="27" fill="white"/>
</svg>
