<svg width="271" height="224" viewBox="0 0 271 224" fill="none" xmlns="http://www.w3.org/2000/svg">
<path d="M236 0C255.33 0 271 15.67 271 35V132C271 151.33 255.33 167 236 167H219.268V216.247C219.267 222.389 211.921 225.553 207.458 221.333L150 167H35C15.67 167 3.2215e-08 151.33 0 132V35C3.2215e-08 15.67 15.67 0 35 0H236ZM168.574 99.9824C165.805 96.9057 161.067 96.6551 157.988 99.4209C157.989 99.4201 157.992 99.4174 157.993 99.416C157.996 99.4133 157.999 99.4107 158.002 99.4082C158.008 99.4029 158.014 99.3978 158.019 99.3936C158.028 99.3853 158.035 99.3793 158.04 99.375L157.883 99.502C157.704 99.6429 157.383 99.8872 156.919 100.202C155.99 100.833 154.498 101.743 152.452 102.675C148.38 104.53 142.061 106.5 133.5 106.5C124.939 106.5 118.62 104.53 114.548 102.675C112.502 101.743 111.01 100.833 110.081 100.202C109.617 99.8872 109.296 99.6429 109.117 99.502L108.96 99.375C108.965 99.3793 108.972 99.3853 108.981 99.3936C108.986 99.3978 108.992 99.4029 108.998 99.4082C109.001 99.4107 109.004 99.4133 109.007 99.416C109.008 99.4174 109.011 99.4201 109.012 99.4209C105.933 96.6549 101.194 96.9053 98.4248 99.9824C95.654 103.061 95.904 107.803 98.9824 110.574L104 105C99.1641 110.373 98.992 110.57 98.9883 110.579C98.9892 110.58 98.9922 110.583 98.9941 110.585C98.9979 110.588 99.0018 110.592 99.0059 110.596C99.0141 110.603 99.0236 110.611 99.0332 110.619C99.0524 110.636 99.0742 110.655 99.0986 110.677C99.1475 110.719 99.2068 110.77 99.2764 110.829C99.4155 110.947 99.5961 111.096 99.8184 111.271C100.263 111.623 100.875 112.082 101.653 112.61C103.209 113.667 105.435 115.007 108.327 116.325C114.13 118.97 122.561 121.5 133.5 121.5C144.439 121.5 152.87 118.97 158.673 116.325C161.565 115.007 163.791 113.667 165.347 112.61C166.125 112.082 166.737 111.623 167.182 111.271C167.404 111.096 167.584 110.947 167.724 110.829C167.793 110.77 167.853 110.719 167.901 110.677C167.926 110.655 167.948 110.636 167.967 110.619C167.976 110.611 167.986 110.603 167.994 110.596C167.998 110.592 168.002 110.588 168.006 110.585C168.008 110.583 168.011 110.58 168.012 110.579C168.008 110.57 167.854 110.394 163.753 105.837L168.018 110.574C171.096 107.803 171.345 103.061 168.574 99.9824ZM79 41C73.4772 41 69 45.4772 69 51V69C69 74.5228 73.4772 79 79 79C84.5228 79 89 74.5228 89 69V51C89 45.4772 84.5228 41 79 41ZM188 41C182.477 41 178 45.4772 178 51V69C178 74.5228 182.477 79 188 79C193.523 79 198 74.5228 198 69V51C198 45.4772 193.523 41 188 41Z" fill="white"/>
</svg>
